<svg xmlns="http://www.w3.org/2000/svg" width="920" height="420"><rect width="100%" height="100%" fill="#fff"/><text x="20" y="30" font-size="20" font-family="Arial">Feature Means by Label (Blue=No Eve, Red=Eve)</text><line x1="40" y1="330" x2="880" y2="330" stroke="#333"/><rect x="60" y="306" width="24" height="24" fill="#3182ce"/><rect x="88" y="260" width="24" height="70" fill="#e53e3e"/><text x="55" y="352" font-size="10" font-family="Arial">QBER</text><rect x="200" y="299" width="24" height="31" fill="#3182ce"/><rect x="228" y="299" width="24" height="31" fill="#e53e3e"/><text x="195" y="352" font-size="10" font-family="Arial">LossRate</text><rect x="340" y="309" width="24" height="21" fill="#3182ce"/><rect x="368" y="277" width="24" height="53" fill="#e53e3e"/><text x="335" y="352" font-size="10" font-family="Arial">ErrorVariance</text><rect x="480" y="328" width="24" height="2" fill="#3182ce"/><rect x="508" y="313" width="24" height="17" fill="#e53e3e"/><text x="475" y="352" font-size="10" font-family="Arial">BurstErrorFrequency</text><rect x="620" y="330" width="24" height="0" fill="#3182ce"/><rect x="648" y="110" width="24" height="220" fill="#e53e3e"/><text x="615" y="352" font-size="10" font-family="Arial">InterceptRatio</text><rect x="760" y="321" width="24" height="9" fill="#3182ce"/><rect x="788" y="321" width="24" height="9" fill="#e53e3e"/><text x="755" y="352" font-size="10" font-family="Arial">ChannelMuCh</text></svg>