<svg xmlns="http://www.w3.org/2000/svg" width="920" height="420"><rect width="100%" height="100%" fill="#fff"/><text x="20" y="30" font-size="20" font-family="Arial">Feature Means by Label (Blue=No Eve, Red=Eve)</text><line x1="40" y1="330" x2="880" y2="330" stroke="#333"/><rect x="60" y="248" width="24" height="82" fill="#3182ce"/><rect x="88" y="110" width="24" height="220" fill="#e53e3e"/><text x="55" y="352" font-size="10" font-family="Arial">QBER</text><rect x="200" y="224" width="24" height="106" fill="#3182ce"/><rect x="228" y="224" width="24" height="106" fill="#e53e3e"/><text x="195" y="352" font-size="10" font-family="Arial">LossRate</text><rect x="340" y="257" width="24" height="73" fill="#3182ce"/><rect x="368" y="163" width="24" height="167" fill="#e53e3e"/><text x="335" y="352" font-size="10" font-family="Arial">ErrorVariance</text><rect x="480" y="323" width="24" height="7" fill="#3182ce"/><rect x="508" y="281" width="24" height="49" fill="#e53e3e"/><text x="475" y="352" font-size="10" font-family="Arial">BurstErrorFrequency</text><rect x="620" y="298" width="24" height="32" fill="#3182ce"/><rect x="648" y="298" width="24" height="32" fill="#e53e3e"/><text x="615" y="352" font-size="10" font-family="Arial">ChannelMuCh</text></svg>