<svg xmlns="http://www.w3.org/2000/svg" width="420" height="420"><rect width="100%" height="100%" fill="#fff"/><text x="20" y="25" font-size="18" font-family="Arial">ROC Curve</text><line x1="40" y1="380" x2="380" y2="380" stroke="#333"/><line x1="40" y1="380" x2="40" y2="40" stroke="#333"/><line x1="40" y1="380" x2="380" y2="40" stroke="#bbb" stroke-dasharray="4,4"/><polyline fill="none" stroke="#2b6cb0" stroke-width="2" points="40,380 40,380 40,380 40,380 40,379 40,379 40,379 40,379 40,378 40,378 40,378 40,378 40,378 40,377 40,377 40,377 40,377 40,376 40,376 40,376 40,376 40,376 40,375 40,375 40,375 40,375 40,374 40,374 40,374 40,374 40,373 40,373 40,373 40,373 40,373 40,372 40,372 40,372 40,372 40,371 40,371 40,371 40,371 40,371 40,370 40,370 40,370 40,370 40,369 40,369 40,369 40,369 40,368 40,368 40,368 40,368 40,368 40,367 40,367 40,367 40,367 40,366 40,366 40,366 40,366 40,366 40,365 40,365 40,365 40,365 40,364 40,364 40,364 40,364 40,363 40,363 40,363 40,363 40,363 40,362 40,362 40,362 40,362 40,361 40,361 40,361 40,361 40,361 40,360 40,360 40,360 40,360 40,359 40,359 40,359 40,359 40,359 40,358 40,358 40,358 40,358 40,357 40,357 40,357 40,357 40,356 40,356 40,356 40,356 40,356 40,355 40,355 40,355 40,355 40,354 40,354 40,354 40,354 40,354 40,353 40,353 40,353 40,353 40,352 40,352 40,352 40,352 40,351 40,351 40,351 40,351 40,351 40,350 40,350 40,350 40,350 40,349 40,349 40,349 40,349 40,349 40,348 40,348 40,348 40,348 40,347 40,347 40,347 40,347 40,346 40,346 40,346 40,346 40,346 40,345 40,345 40,345 40,345 40,344 40,344 40,344 40,344 40,344 40,343 40,343 40,343 40,343 40,342 40,342 40,342 40,342 40,342 40,341 40,341 40,341 40,341 40,340 40,340 40,340 40,340 40,339 40,339 40,339 40,339 40,339 40,338 40,338 40,338 40,338 40,337 40,337 40,337 40,337 40,337 40,336 40,336 40,336 40,336 40,335 40,335 40,335 40,335 40,334 40,334 40,334 40,334 40,334 40,333 40,333 40,333 40,333 40,332 40,332 40,332 40,332 40,332 40,331 40,331 40,331 40,331 40,330 40,330 40,330 40,330 40,329 40,329 40,329 40,329 40,329 40,328 40,328 40,328 40,328 40,327 40,327 40,327 40,327 40,327 40,326 40,326 40,326 40,326 40,325 40,325 40,325 40,325 40,325 40,324 40,324 40,324 40,324 40,323 40,323 40,323 40,323 40,322 40,322 40,322 40,322 40,322 40,321 40,321 40,321 40,321 40,320 40,320 40,320 40,320 40,320 40,319 40,319 40,319 40,319 40,318 40,318 40,318 40,318 40,317 40,317 40,317 40,317 40,317 40,316 40,316 40,316 40,316 40,315 40,315 40,315 40,315 40,315 40,314 40,314 40,314 40,314 40,313 40,313 40,313 40,313 40,312 40,312 40,312 40,312 40,312 40,311 40,311 40,311 40,311 40,310 40,310 40,310 40,310 40,310 40,309 40,309 40,309 40,309 40,308 40,308 40,308 40,308 40,308 40,307 40,307 40,307 40,307 40,306 40,306 40,306 40,306 40,305 40,305 40,305 40,305 40,305 40,304 40,304 40,304 40,304 40,303 40,303 40,303 40,303 40,303 40,302 40,302 40,302 40,302 40,301 40,301 40,301 40,301 40,300 40,300 40,300 40,300 40,300 40,299 40,299 40,299 40,299 40,298 40,298 40,298 40,298 40,298 40,297 40,297 40,297 40,297 40,296 40,296 40,296 40,296 40,295 40,295 40,295 40,295 40,295 40,294 40,294 40,294 40,294 40,293 40,293 40,293 40,293 40,293 40,292 40,292 40,292 40,292 40,291 40,291 40,291 40,291 40,291 40,290 40,290 40,290 40,290 40,289 40,289 40,289 40,289 40,288 40,288 40,288 40,288 40,288 40,287 40,287 40,287 40,287 40,286 40,286 40,286 40,286 40,286 40,285 40,285 40,285 40,285 40,284 40,284 40,284 40,284 40,283 40,283 40,283 40,283 40,283 40,282 40,282 40,282 40,282 40,281 40,281 40,281 40,281 40,281 40,280 40,280 40,280 40,280 40,279 40,279 40,279 40,279 40,278 40,278 40,278 40,278 40,278 40,277 40,277 40,277 40,277 40,276 40,276 40,276 40,276 40,276 40,275 40,275 40,275 40,275 40,274 40,274 40,274 40,274 40,274 40,273 40,273 40,273 40,273 40,272 40,272 40,272 40,272 40,271 40,271 40,271 40,271 40,271 40,270 40,270 40,270 40,270 40,269 40,269 40,269 40,269 40,269 40,268 40,268 40,268 40,268 40,267 40,267 40,267 40,267 40,266 40,266 40,266 40,266 40,266 40,265 40,265 40,265 40,265 40,264 40,264 40,264 40,264 40,264 40,263 40,263 40,263 40,263 40,262 40,262 40,262 40,262 40,262 40,261 40,261 40,261 40,261 40,260 40,260 40,260 40,260 40,259 40,259 40,259 40,259 40,259 40,258 40,258 40,258 40,258 40,257 40,257 40,257 40,257 40,257 40,256 40,256 40,256 40,256 40,255 40,255 40,255 40,255 40,254 40,254 40,254 40,254 40,254 40,253 40,253 40,253 40,253 40,252 40,252 40,252 40,252 40,252 40,251 40,251 40,251 40,251 40,250 40,250 40,250 40,250 40,249 40,249 40,249 40,249 40,249 40,248 40,248 40,248 40,248 40,247 40,247 40,247 40,247 40,247 40,246 40,246 40,246 40,246 40,245 40,245 40,245 40,245 40,244 40,244 40,244 40,244 40,244 40,243 40,243 40,243 40,243 40,242 40,242 40,242 40,242 40,242 40,241 40,241 40,241 40,241 40,240 40,240 40,240 40,240 40,240 40,239 40,239 40,239 40,239 40,238 40,238 40,238 40,238 40,237 40,237 40,237 40,237 40,237 40,236 40,236 40,236 40,236 40,235 40,235 40,235 40,235 40,235 40,234 40,234 40,234 40,234 40,233 40,233 40,233 40,233 40,232 40,232 40,232 40,232 40,232 40,231 40,231 40,231 40,231 40,231 40,230 40,230 40,230 40,230 40,230 40,229 40,229 40,229 40,229 40,228 40,228 40,228 40,228 40,227 40,227 40,227 40,227 40,227 40,226 40,226 40,226 40,226 40,225 40,225 40,225 40,225 40,225 40,224 40,224 40,224 40,224 40,223 40,223 40,223 40,223 40,223 40,222 40,222 40,222 40,222 40,221 40,221 40,221 40,221 40,220 40,220 40,220 40,220 40,220 40,219 40,219 40,219 40,219 40,218 40,218 40,218 40,218 40,218 40,217 40,217 40,217 40,217 40,216 40,216 40,216 40,216 40,215 40,215 40,215 40,215 40,215 40,214 40,214 40,214 40,214 40,213 40,213 40,213 40,213 40,213 40,212 40,212 40,212 40,212 40,211 40,211 40,211 40,211 40,210 40,210 40,210 40,210 40,210 40,209 40,209 40,209 40,209 40,208 40,208 40,208 40,208 40,208 40,207 40,207 40,207 40,207 40,206 40,206 40,206 40,206 40,206 40,205 40,205 40,205 40,205 40,204 40,204 40,204 40,204 40,203 40,203 40,203 40,203 40,203 40,202 40,202 40,202 40,202 40,201 40,201 40,201 40,201 40,201 40,200 40,200 40,200 40,200 40,199 40,199 40,199 40,199 40,198 40,198 40,198 40,198 40,198 40,197 40,197 40,197 40,197 40,196 40,196 40,196 40,196 40,196 40,195 40,195 40,195 40,195 40,194 40,194 40,194 40,194 40,193 40,193 40,193 40,193 40,193 40,192 40,192 40,192 40,192 40,191 40,191 40,191 40,191 40,191 40,190 40,190 40,190 40,190 40,189 40,189 40,189 40,189 40,189 40,188 40,188 40,188 40,188 40,187 40,187 40,187 40,187 40,186 40,186 40,186 40,186 40,186 40,185 40,185 40,185 40,185 40,184 40,184 40,184 40,184 40,184 40,183 40,183 40,183 40,183 40,182 40,182 40,182 40,182 40,181 40,181 40,181 40,181 40,181 40,180 40,180 40,180 40,180 40,179 40,179 40,179 40,179 40,179 40,178 40,178 40,178 40,178 40,177 40,177 40,177 40,177 40,176 40,176 40,176 40,176 40,176 40,175 40,175 40,175 40,175 40,175 40,174 40,174 40,174 40,174 40,174 40,174 40,173 40,173 40,173 40,173 40,173 40,172 40,172 40,172 40,172 40,172 40,171 40,171 40,171 40,171 40,170 40,170 40,170 40,170 40,169 40,169 40,169 41,169 41,169 41,169 41,168 41,168 41,168 41,168 41,168 41,167 41,167 41,167 41,167 41,167 41,166 41,166 41,166 41,166 41,165 41,165 41,165 41,165 41,164 41,164 41,164 41,164 41,164 41,163 41,163 41,163 41,163 41,162 41,162 41,162 41,162 41,162 41,161 41,161 41,161 41,161 41,160 41,160 41,160 41,160 41,159 41,159 41,159 41,159 41,159 41,158 41,158 41,158 41,158 41,157 41,157 41,157 41,157 41,157 41,156 41,156 41,156 41,156 41,155 41,155 41,155 41,155 41,155 41,154 41,154 41,154 41,154 41,153 41,153 41,153 41,153 41,153 41,152 41,152 41,152 41,152 41,152 41,151 41,151 41,151 41,151 41,150 41,150 41,150 41,150 41,150 41,149 41,149 41,149 41,149 41,148 41,148 41,148 41,148 41,148 41,147 41,147 41,147 41,147 41,147 41,146 42,146 42,146 42,146 42,146 42,145 42,145 42,145 42,145 42,145 42,145 42,145 42,144 42,144 42,144 42,144 42,143 42,143 42,143 42,143 42,143 42,142 42,142 42,142 42,142 42,141 42,141 42,141 42,141 42,140 42,140 42,140 42,140 42,140 42,139 42,139 42,139 42,139 42,138 42,138 42,138 42,138 42,138 42,137 42,137 42,137 42,137 42,136 42,136 42,136 42,136 42,135 42,135 42,135 42,135 42,135 42,135 42,134 42,134 42,134 42,134 42,134 42,133 43,133 43,133 43,133 43,133 43,133 43,132 43,132 43,132 43,132 43,131 43,131 43,131 43,131 43,130 43,130 43,130 43,130 43,130 43,129 43,129 43,129 43,129 43,129 43,128 43,128 43,128 43,128 43,128 43,128 43,128 43,127 43,127 43,127 43,127 43,126 43,126 43,126 43,126 43,125 43,125 43,125 43,125 43,125 43,124 43,124 43,124 43,124 43,123 43,123 43,123 43,123 43,123 43,122 43,122 44,122 44,122 44,122 44,121 44,121 44,121 44,121 44,121 44,120 44,120 44,120 44,120 44,120 44,119 44,119 44,119 44,119 44,118 44,118 44,118 44,118 44,118 44,117 44,117 44,117 44,117 44,117 44,116 44,116 44,116 44,116 44,116 44,115 44,115 44,115 44,115 44,115 44,114 44,114 44,114 44,114 44,113 44,113 44,113 44,113 44,113 44,113 44,112 44,112 44,112 44,112 45,112 45,112 45,112 45,111 45,111 45,111 45,111 45,111 45,110 45,110 45,110 46,110 46,110 46,110 46,109 46,109 46,109 46,109 46,108 46,108 46,108 46,108 46,108 46,107 46,107 46,107 46,107 46,106 46,106 46,106 46,106 46,106 46,105 46,105 46,105 46,105 46,105 46,104 46,104 46,104 46,104 46,104 46,104 46,104 47,104 47,104 47,103 47,103 47,103 47,103 47,103 47,103 47,102 47,102 47,102 47,102 47,102 47,101 47,101 47,101 47,101 47,101 48,101 48,100 48,100 48,100 48,100 48,100 48,99 48,99 48,99 48,99 48,99 48,99 49,99 49,99 49,98 49,98 49,98 49,98 49,98 49,98 49,97 49,97 49,97 49,97 49,97 49,96 49,96 49,96 49,96 49,96 49,96 49,95 49,95 50,95 50,95 50,95 50,95 50,94 50,94 50,94 50,94 50,94 50,94 50,93 50,93 50,93 51,93 51,93 51,93 51,92 51,92 51,92 51,92 51,91 51,91 51,91 51,91 51,91 51,91 51,90 51,90 51,90 51,90 52,90 52,90 52,90 52,90 52,90 52,90 52,90 52,89 53,89 53,89 53,89 53,89 53,89 53,89 53,88 53,88 53,88 53,88 53,88 53,87 53,87 53,87 53,87 53,87 54,87 54,87 54,87 54,86 54,86 54,86 54,86 54,86 54,86 54,85 54,85 54,85 54,85 54,84 54,84 54,84 54,84 55,84 55,84 55,84 55,84 55,84 55,83 55,83 55,83 55,83 56,83 56,83 56,83 56,83 56,82 56,82 56,82 56,82 56,82 56,82 57,82 57,82 57,81 57,81 57,81 57,81 57,81 57,81 57,81 57,80 58,80 58,80 58,80 58,80 58,80 58,80 58,80 59,80 59,79 59,79 59,79 59,79 59,79 59,79 59,79 59,79 60,79 60,79 60,79 60,78 60,78 60,78 60,78 60,78 60,78 61,78 61,77 61,77 61,77 61,77 61,77 61,77 61,77 61,76 61,76 61,76 61,76 61,76 61,76 61,75 61,75 62,75 62,75 62,75 62,75 62,75 62,74 62,74 62,74 62,74 63,74 63,74 63,74 63,74 63,74 63,73 63,73 63,73 63,73 63,73 63,72 64,72 64,72 64,72 64,72 64,72 64,72 64,72 64,72 64,72 64,71 64,71 64,71 65,71 65,71 65,71 65,70 65,70 65,70 65,70 65,70 66,70 66,70 66,70 66,70 66,70 66,70 66,69 66,69 67,69 67,69 67,69 67,69 67,69 67,69 67,68 67,68 67,68 67,68 67,68 68,68 68,68 68,68 68,67 68,67 68,67 68,67 68,67 68,66 68,66 68,66 69,66 69,66 69,66 69,66 69,66 69,65 69,65 69,65 69,65 70,65 70,65 70,65 70,65 71,65 71,65 71,65 71,65 71,65 71,65 71,65 71,65 72,65 72,65 72,65 72,65 73,65 73,64 73,64 73,64 73,64 73,64 74,64 74,64 74,64 74,64 74,64 74,64 75,64 75,64 75,64 75,64 75,63 75,63 76,63 76,63 76,63 76,63 76,63 76,63 76,63 76,62 76,62 76,62 76,62 76,62 77,62 77,62 77,62 77,62 77,62 78,62 78,62 78,62 78,61 78,61 78,61 79,61 79,61 79,61 79,61 79,61 80,61 80,61 80,61 80,61 80,61 80,61 81,61 81,60 81,60 81,60 81,60 81,60 81,60 82,60 82,60 82,60 82,60 82,60 83,60 83,60 83,60 83,60 83,60 83,60 83,60 84,60 84,60 84,60 84,60 85,60 85,59 85,59 85,59 85,59 85,59 85,59 85,59 86,59 86,59 86,59 86,58 86,58 86,58 86,58 86,58 86,58 87,58 87,58 87,58 87,57 87,57 87,57 87,57 88,57 88,57 88,57 88,57 88,57 88,57 89,57 89,57 89,57 89,57 90,57 90,57 90,57 90,57 90,57 91,57 91,57 91,57 91,57 91,57 92,57 92,57 92,57 92,56 92,56 92,56 92,56 93,56 93,56 93,56 93,56 93,56 93,56 94,56 94,56 94,55 94,55 94,55 95,55 95,55 95,55 95,55 95,55 96,55 96,55 96,55 96,55 97,55 97,55 97,55 97,55 97,55 97,55 97,55 97,55 97,54 97,54 98,54 98,54 98,54 98,54 98,54 98,54 98,53 98,53 98,53 99,53 99,53 99,53 99,53 100,53 100,53 100,53 100,53 100,53 100,53 100,53 100,52 100,52 100,52 101,52 101,52 101,52 101,52 101,52 102,52 102,52 102,52 102,52 102,52 103,52 103,52 103,52 103,51 103,51 103,51 104,51 104,51 104,51 104,51 105,51 105,51 105,51 105,51 105,51 105,51 106,51 106,51 106,51 106,51 107,51 107,51 107,51 107,51 107,51 108,51 108,51 108,50 108,50 108,50 108,50 108,50 108,50 109,50 109,50 109,50 109,50 109,50 110,50 110,50 110,50 110,50 110,50 110,50 111,50 111,50 111,50 111,50 112,50 112,50 112,50 112,50 112,50 113,50 113,50 113,50 113,50 114,50 114,50 114,50 114,50 114,50 115,50 115,50 115,50 115,50 115,49 115,49 116,49 116,49 116,49 116,49 116,49 117,49 117,49 117,49 117,49 117,49 118,49 118,49 118,49 118,49 119,49 119,49 119,49 119,49 120,49 120,49 120,49 120,49 120,49 120,49 121,49 121,49 121,49 121,49 121,49 122,49 122,49 122,49 122,49 122,49 123,49 123,49 123,49 123,49 124,49 124,49 124,49 124,48 124,48 125,48 125,48 125,48 125,48 125,48 126,48 126,48 126,48 126,48 126,48 127,48 127,48 127,48 127,48 127,48 128,48 128,48 128,48 128,48 129,48 129,48 129,48 129,48 129,48 130,48 130,48 130,48 130,48 131,48 131,48 131,48 131,48 132,48 132,48 132,48 132,48 132,48 133,48 133,48 133,48 133,48 134,48 134,48 134,48 134,48 134,48 134,48 135,48 135,48 135,48 135,48 135,48 136,48 136,48 136,48 136,48 136,47 136,47 137,47 137,47 137,47 137,47 137,47 137,47 138,47 138,47 138,47 138,47 138,47 139,47 139,47 139,47 139,47 139,47 140,47 140,47 140,47 140,47 140,47 141,47 141,47 141,47 141,47 142,47 142,47 142,47 142,47 142,47 143,47 143,47 143,47 143,47 144,47 144,47 144,47 144,47 144,47 145,47 145,47 145,47 145,47 146,47 146,47 146,47 146,47 146,47 147,47 147,47 147,46 147,46 147,46 147,46 148,46 148,46 148,46 148,46 149,46 149,46 149,46 149,46 149,46 150,46 150,46 150,46 150,46 151,46 151,46 151,46 151,46 151,46 152,46 152,46 152,46 152,46 152,46 152,46 152,45 153,45 153,45 153,45 153,45 154,45 154,45 154,45 154,45 154,45 155,45 155,45 155,45 155,45 156,45 156,45 156,45 156,45 156,45 157,45 157,45 157,45 157,45 158,45 158,45 158,45 158,45 158,45 158,45 159,45 159,45 159,45 159,45 160,45 160,45 160,45 160,45 161,45 161,45 161,45 161,45 161,45 162,45 162,45 162,45 162,45 163,45 163,45 163,45 163,45 163,45 164,45 164,45 164,45 164,45 165,45 165,45 165,45 165,45 166,45 166,45 166,45 166,45 166,45 167,45 167,45 167,45 167,45 168,45 168,45 168,45 168,45 168,45 169,45 169,45 169,45 169,45 169,45 170,45 170,45 170,45 170,45 171,45 171,45 171,45 171,45 171,45 172,45 172,45 172,45 172,45 173,45 173,45 173,45 173,45 173,45 174,45 174,45 174,45 174,45 174,44 174,44 174,44 174,44 175,44 175,44 175,44 175,44 176,44 176,44 176,44 176,44 176,44 176,44 176,44 176,43 177,43 177,43 177,43 177,43 178,43 178,43 178,43 178,43 178,43 179,43 179,43 179,43 179,43 180,43 180,43 180,43 180,43 180,43 181,43 181,43 181,43 181,43 182,43 182,43 182,43 182,43 183,43 183,43 183,43 183,43 183,43 184,43 184,43 184,43 184,43 185,43 185,43 185,43 185,43 185,43 186,43 186,43 186,43 186,43 187,43 187,43 187,43 187,43 188,43 188,43 188,43 188,43 188,43 189,43 189,43 189,43 189,43 190,43 190,43 190,43 190,43 190,43 191,43 191,43 191,43 191,43 192,43 192,43 192,43 192,43 193,43 193,43 193,43 193,43 193,43 194,43 194,43 194,43 194,43 195,43 195,43 195,43 195,43 195,43 196,43 196,43 196,43 196,43 196,43 197,43 197,43 197,43 197,43 197,43 197,43 198,43 198,43 198,43 198,43 199,43 199,43 199,43 199,43 200,43 200,43 200,43 200,43 200,43 201,43 201,43 201,43 201,43 202,43 202,43 202,43 202,43 202,43 202,43 203,43 203,43 203,43 203,43 204,43 204,43 204,43 204,43 205,43 205,43 205,43 205,43 205,43 206,43 206,43 206,43 206,43 207,43 207,43 207,43 207,43 207,43 208,43 208,43 208,43 208,43 209,43 209,43 209,43 209,43 210,43 210,43 210,43 210,43 210,43 211,43 211,43 211,43 211,43 212,43 212,43 212,43 212,43 212,43 212,42 212,42 213,42 213,42 213,42 213,42 214,42 214,42 214,42 214,42 214,42 215,42 215,42 215,42 215,42 216,42 216,42 216,42 216,42 217,42 217,42 217,42 217,42 217,42 218,42 218,42 218,42 218,42 219,42 219,42 219,42 219,42 219,42 220,42 220,42 220,42 220,42 221,42 221,42 221,42 221,42 222,42 222,42 222,42 222,42 222,42 223,42 223,42 223,42 223,42 224,42 224,42 224,42 224,42 224,42 225,42 225,42 225,42 225,42 226,42 226,42 226,42 226,42 227,42 227,42 227,42 227,42 227,42 228,42 228,42 228,42 228,42 229,42 229,42 229,42 229,42 229,42 230,42 230,42 230,42 230,42 231,42 231,42 231,42 231,42 231,42 232,42 232,42 232,42 232,42 232,42 233,42 233,42 233,42 233,42 234,42 234,42 234,42 234,42 234,42 234,42 235,42 235,42 235,42 235,42 236,42 236,42 236,42 236,42 236,42 237,42 237,42 237,42 237,42 238,42 238,42 238,42 238,42 239,42 239,42 239,42 239,42 239,42 240,42 240,42 240,42 240,42 241,42 241,42 241,42 241,42 241,42 241,42 242,42 242,42 242,42 242,42 243,42 243,42 243,42 243,42 244,42 244,42 244,42 244,42 244,42 245,42 245,42 245,42 245,42 246,42 246,42 246,42 246,42 246,42 247,42 247,42 247,42 247,42 248,42 248,42 248,42 248,42 248,42 248,41 249,41 249,41 249,41 249,41 250,41 250,41 250,41 250,41 251,41 251,41 251,41 251,41 251,41 252,41 252,41 252,41 252,41 253,41 253,41 253,41 253,41 253,41 254,41 254,41 254,41 254,41 255,41 255,41 255,41 255,41 256,41 256,41 256,41 256,41 256,41 257,41 257,41 257,41 257,41 258,41 258,41 258,41 258,41 258,41 259,41 259,41 259,41 259,41 260,41 260,41 260,41 260,41 261,41 261,41 261,41 261,41 261,41 262,41 262,41 262,41 262,41 263,41 263,41 263,41 263,41 263,41 264,41 264,41 264,41 264,41 265,41 265,41 265,41 265,41 265,41 266,41 266,41 266,41 266,41 267,41 267,41 267,41 267,41 268,41 268,41 268,41 268,41 268,41 269,41 269,41 269,41 269,41 270,41 270,41 270,41 270,41 270,41 271,41 271,41 271,41 271,41 272,41 272,41 272,41 272,41 273,41 273,41 273,41 273,41 273,41 274,41 274,41 274,41 274,41 275,41 275,41 275,41 275,41 275,41 276,41 276,41 276,41 276,41 277,41 277,41 277,41 277,41 277,41 277,41 278,41 278,41 278,41 278,41 279,41 279,41 279,41 279,41 280,41 280,41 280,41 280,41 280,41 281,41 281,41 281,41 281,41 282,41 282,41 282,41 282,41 282,41 283,41 283,41 283,41 283,41 284,41 284,41 284,41 284,41 285,41 285,41 285,41 285,41 285,41 286,41 286,41 286,41 286,41 287,41 287,41 287,41 287,41 287,41 288,41 288,41 288,41 288,41 289,41 289,41 289,41 289,41 290,41 290,41 290,41 290,41 290,41 291,41 291,41 291,41 291,41 292,41 292,41 292,41 292,41 292,41 293,41 293,41 293,41 293,41 294,41 294,41 294,41 294,41 294,41 295,41 295,41 295,41 295,41 295,41 296,41 296,41 296,41 296,41 297,41 297,41 297,41 297,41 297,41 298,41 298,41 298,41 298,41 299,41 299,41 299,41 299,41 299,41 300,41 300,41 300,41 300,41 301,41 301,41 301,41 301,41 302,41 302,41 302,41 302,41 302,41 303,41 303,41 303,41 303,41 304,41 304,41 304,41 304,41 304,41 305,41 305,41 305,41 305,41 306,41 306,41 306,41 306,41 307,41 307,41 307,41 307,41 307,41 308,41 308,41 308,41 308,41 309,41 309,41 309,41 309,41 309,41 310,41 310,41 310,41 310,41 311,41 311,41 311,41 311,41 312,41 312,41 312,41 312,41 312,41 313,41 313,41 313,41 313,41 314,41 314,41 314,41 314,41 314,41 315,41 315,41 315,41 315,41 316,41 316,41 316,41 316,41 316,41 317,41 317,41 317,41 317,41 318,41 318,41 318,41 318,41 319,41 319,41 319,41 319,41 319,41 320,41 320,41 320,41 320,41 321,41 321,41 321,41 321,41 321,41 322,41 322,41 322,41 322,41 323,41 323,41 323,41 323,41 324,41 324,41 324,41 324,41 324,41 325,41 325,41 325,41 325,41 326,41 326,41 326,41 326,41 326,41 327,41 327,41 327,41 327,41 328,41 328,41 328,41 328,41 329,41 329,41 329,41 329,41 329,41 330,41 330,41 330,41 330,41 330,41 331,41 331,41 331,41 331,41 331,41 332,41 332,41 332,41 332,41 333,41 333,41 333,41 333,41 333,41 334,41 334,41 334,41 334,41 335,41 335,41 335,41 335,41 336,41 336,41 336,41 336,41 336,41 337,41 337,41 337,41 337,41 338,41 338,41 338,41 338,40 338,40 338,40 339,40 339,40 339,40 339,40 340,40 340,40 340,40 340,40 341,40 341,40 341,40 341,40 341,40 342,40 342,40 342,40 342,40 343,40 343,40 343,40 343,40 343,40 344,40 344,40 344,40 344,40 345,40 345,40 345,40 345,40 346,40 346,40 346,40 346,40 346,40 347,40 347,40 347,40 347,40 348,40 348,40 348,40 348,40 348,40 349,40 349,40 349,40 349,40 350,40 350,40 350,40 350,40 350,40 351,40 351,40 351,40 351,40 352,40 352,40 352,40 352,40 353,40 353,40 353,40 353,40 353,40 354,40 354,40 354,40 354,40 355,40 355,40 355,40 355,40 355,40 356,40 356,40 356,40 356,40 357,40 357,40 357,40 357,40 358,40 358,40 358,40 358,40 358,40 359,40 359,40 359,40 359,40 360,40 360,40 360,40 360,40 360,40 361,40 361,40 361,40 361,40 362,40 362,40 362,40 362,40 363,40 363,40 363,40 363,40 363,40 364,40 364,40 364,40 364,40 365,40 365,40 365,40 365,40 365,40 366,40 366,40 366,40 366,40 367,40 367,40 367,40 367,40 367,40 368,40 368,40 368,40 368,40 369,40 369,40 369,40 369,40 370,40 370,40 370,40 370,40 370,40 371,40 371,40 371,40 371,40 372,40 372,40 372,40 372,40 372,40 373,40 373,40 373,40 373,40 374,40 374,40 374,40 374,40 375,40 375,40 375,40 375,40 375,40 376,40 376,40 376,40 376,40 377,40 377,40 377,40 377,40 377,40 378,40 378,40 378,40 378,40 379,40 379,40 379,40 379,40 380,40"/></svg>